<?xml version="1.0" encoding="utf-8"?>
<!-- Generator: Adobe Illustrator 25.4.0, SVG Export Plug-In . SVG Version: 6.00 Build 0)  -->
<svg version="1.1" id="레이어_1" xmlns="http://www.w3.org/2000/svg" xmlns:xlink="http://www.w3.org/1999/xlink" x="0px"
	 y="0px" viewBox="0 0 280 111" style="enable-background:new 0 0 280 111;" xml:space="preserve">
<style type="text/css">
	.st0{fill:#FFFFFF;}
	.st1{fill:#FFFFFF;filter:url(#Adobe_OpacityMaskFilter);}
	.st2{mask:url(#mask0_601_8379_00000126303006688828059690000008497970281188040365_);}
</style>
<g>
	<g>
		<path class="st0" d="M181.9,2.2h16.6v2.5h-16.6V2.2z"/>
		<path class="st0" d="M195.1,7.1l0.6-2.4v0h-2.9l-0.6,2.5h-4.3V4.6H185v2.5h-3.3v2.5h17V7.1H195.1z"/>
		<path class="st0" d="M184.5,19.7h13.9V14h-16.6v2.4h13.9v0.9h-13.9v5.8h16.8v-2.4h-14.1V19.7z"/>
		<path class="st0" d="M180.8,10.6h18.6v2.5h-18.6V10.6z"/>
		<path class="st0" d="M227.3,2.2h16.6v2.7h-16.6V2.2z"/>
		<path class="st0" d="M236.9,12.2v-1.4h7.2V8.1h-3.5l0.7-3.6h-2.9l-0.7,3.6h-4.5V4.5h-2.9v3.6h-3.3v2.6h6.9v1.4H226v2.6h19v-2.6
			H236.9z"/>
		<path class="st0" d="M227.3,23.1h16.6v-7.2h-16.6V23.1z M230.1,18.4h11.1v2.2h-11.1V18.4z"/>
		<path class="st0" d="M109.4,16.4h-2.9v6.7h16.8v-2.6h-13.9L109.4,16.4z"/>
		<path class="st0" d="M120.1,11.7h2.9V2.2h-16.5V5h13.6v1.6h-13.6v2.7h13.6V11.7z"/>
		<path class="st0" d="M115.3,12.8v-2.7h-2.9v2.7h-6.9v2.6H124v-2.6H115.3z"/>
		<path class="st0" d="M136.8,14.5v-2.7l-5.6,0.4V9.8h4.9V7.1h-4.9V5h5.3V2.2h-8.2v12.9L136.8,14.5L136.8,14.5z"/>
		<path class="st0" d="M139,17.2h2.9V1.9H139v5.2h-2.1v2.7h2.1L139,17.2z"/>
		<path class="st0" d="M143.1,1.8h2.9v16h-2.9V1.8z"/>
		<path class="st0" d="M131.9,20.5v-4.3h-2.9v6.9h17.2v-2.6H131.9z"/>
		<path class="st0" d="M159.6,7.5l6.5,9.4l2.3-1.9l-6.1-8.5h5.7V3.8h-7V1.1h-3.1v2.7h-6.8v2.7h5.7l-6.1,8.5l2.3,1.9L159.6,7.5z"/>
		<path class="st0" d="M150.2,20.4h18.7v2.7h-18.7V20.4z"/>
		<path class="st0" d="M217.4,9.9h1.6v6.4h2.9V1.8H219v5.4h-1.6V1.9h-2.8v13.5h2.8L217.4,9.9z"/>
		<path class="st0" d="M213.1,14.6V12l-6,0.4V9.6h5.8V2.2h-8.7v2.5h5.8v2.3h-5.8v8.2L213.1,14.6z"/>
		<path class="st0" d="M213.5,15.7L213.5,15.7l-9.1,5.7l1.6,2.3l7.5-4.7l7.5,4.7l1.7-2.3L213.5,15.7z"/>
		<path class="st0" d="M88.7,23.1l-3.3-9.5h-0.2v9.5h-3.3V2.3h3.3l0,9.2h0.2l3.2-9.2h3.6l-3.8,10.1l4.2,10.7L88.7,23.1z"/>
		<path class="st0" d="M93.9,11.1h7.2v2.6h-7.2V11.1z"/>
		<path class="st0" d="M58.3,19.4h3.3v3.7h-3.3V19.4z"/>
		<path class="st0" d="M40.4,8.1V2.3h3.1v20.8h-3.2l-3.3-12.6h-0.2l0.2,5.3v7.3h-3.1V2.3h3.6l2.9,11.5h0.2L40.4,8.1z"/>
		<path class="st0" d="M68.2,2.2v20.9H65v-16h-2.2v-2c0.8,0,1.7-0.2,2.3-0.8c0.6-0.5,1-1.3,1.1-2.1L68.2,2.2z"/>
		<path class="st0" d="M56,7.2v10.9c0,3.3-1.8,5.2-4.9,5.2c-3.2,0-4.9-1.9-4.9-5.2V7.2c0-3.3,1.7-5.2,4.9-5.2C54.2,2.1,56,4,56,7.2z
			 M52.6,6.7c0-1.1-0.6-1.8-1.5-1.8c-0.2,0-0.4,0.1-0.6,0.1c-0.2,0.1-0.4,0.2-0.5,0.4c-0.1,0.2-0.3,0.4-0.3,0.6
			c-0.1,0.2-0.1,0.4-0.1,0.7v11.9c0,1.1,0.6,1.8,1.5,1.8c0.2,0,0.4-0.1,0.6-0.1c0.2-0.1,0.4-0.2,0.5-0.4c0.1-0.2,0.3-0.4,0.3-0.6
			c0.1-0.2,0.1-0.4,0.1-0.7L52.6,6.7z"/>
	</g>
</g>
<defs>
	<filter id="Adobe_OpacityMaskFilter" filterUnits="userSpaceOnUse" x="0.4" y="40.4" width="278" height="68.2">
		<feColorMatrix  type="matrix" values="1 0 0 0 0  0 1 0 0 0  0 0 1 0 0  0 0 0 1 0"/>
	</filter>
</defs>
<mask maskUnits="userSpaceOnUse" x="0.4" y="40.4" width="278" height="68.2" id="mask0_601_8379_00000126303006688828059690000008497970281188040365_">
	<path class="st1" d="M0.4,40.5h278v68.2H0.4V40.5z"/>
</mask>
<g class="st2">
	<path class="st0" d="M182.6,78.9l13.5,27.3h21V42.1H197v26.7c0,0.4-0.1,0.8-0.4,1.1c-0.2,0.3-0.6,0.5-1,0.6c-0.4,0.1-0.8,0-1.2-0.1
		c-0.4-0.2-0.7-0.5-0.8-0.8L180,42.1h-21v64.1h20.2V79.7c0-0.4,0.1-0.8,0.4-1.1c0.2-0.3,0.6-0.5,1-0.6c0.4-0.1,0.8,0,1.2,0.1
		C182.1,78.2,182.4,78.5,182.6,78.9"/>
	<path class="st0" d="M127.8,42.1h22.1v64.1h-22.1V42.1z"/>
	<path class="st0" d="M223.7,68.1v11.8c0,11.5,4.3,19.8,12.9,24.7c13.6,7.8,33.3,3,41.9-3.4V71.4h-19.9v18.8l-0.4,0.1
		c-1.6,0.6-3.3,0.9-5,0.7c-1.7-0.1-3.3-0.6-4.8-1.5c-1.4-1.1-2.5-2.6-3.2-4.2c-0.7-1.6-0.9-3.4-0.7-5.2V66.9
		c-0.2-1.7,0.2-3.4,1.2-4.9c1-1.4,2.4-2.4,4.1-2.9c1.8-0.4,3.7-0.2,5.4,0.8c1.6,0.9,2.9,2.4,3.4,4.2l19.3-10.4
		c-2.5-4.3-6.1-7.8-10.4-10.1c-4.3-2.4-9.2-3.5-14.2-3.2c-1.3,0-2.6,0.1-3.8,0.2c-6.5,0.4-12.8,2.9-17.8,7.1
		c-2.7,2.6-4.8,5.8-6.2,9.3C224.1,60.5,223.5,64.3,223.7,68.1"/>
	<path class="st0" d="M55.3,42.1H0.4v18.8h16.5v45.3h21.8V60.9h16.5L55.3,42.1z"/>
	<path class="st0" d="M80.6,106.9L94.4,64c0.1-0.4,0.4-0.8,0.8-1c0.4-0.2,0.8-0.3,1.2-0.2c0.4,0.1,0.8,0.3,1.1,0.6
		c0.3,0.3,0.4,0.7,0.4,1.2v42.4h20.9V42.8H79.2l-21.7,64.1H80.6z"/>
</g>
</svg>
