<svg width="24" height="24" viewBox="0 0 24 24" fill="none" xmlns="http://www.w3.org/2000/svg">
<rect width="24" height="24" rx="12" fill="#2B2B2B"/>
<g clip-path="url(#clip0_601_5157)">
<path d="M12.0031 8.17267C9.88632 8.17267 8.17893 9.88006 8.17893 11.9968C8.17893 14.1136 9.88632 15.821 12.0031 15.821C14.1198 15.821 15.8272 14.1136 15.8272 11.9968C15.8272 9.88006 14.1198 8.17267 12.0031 8.17267ZM12.0031 14.483C10.6352 14.483 9.51688 13.3681 9.51688 11.9968C9.51688 10.6256 10.6318 9.51063 12.0031 9.51063C13.3743 9.51063 14.4893 10.6256 14.4893 11.9968C14.4893 13.3681 13.371 14.483 12.0031 14.483V14.483ZM16.8756 8.01625C16.8756 8.51215 16.4762 8.90822 15.9837 8.90822C15.4878 8.90822 15.0917 8.50883 15.0917 8.01625C15.0917 7.52367 15.4911 7.12428 15.9837 7.12428C16.4762 7.12428 16.8756 7.52367 16.8756 8.01625ZM19.4084 8.92153C19.3518 7.72669 19.0789 6.66831 18.2036 5.79631C17.3316 4.92431 16.2732 4.65139 15.0784 4.59148C13.8469 4.52159 10.1559 4.52159 8.92446 4.59148C7.73295 4.64806 6.67456 4.92098 5.79924 5.79298C4.92391 6.66498 4.65432 7.72336 4.59441 8.9182C4.52452 10.1496 4.52452 13.8407 4.59441 15.0721C4.65099 16.267 4.92391 17.3253 5.79924 18.1973C6.67456 19.0693 7.72962 19.3423 8.92446 19.4022C10.1559 19.4721 13.8469 19.4721 15.0784 19.4022C16.2732 19.3456 17.3316 19.0727 18.2036 18.1973C19.0756 17.3253 19.3485 16.267 19.4084 15.0721C19.4783 13.8407 19.4783 10.153 19.4084 8.92153V8.92153ZM17.8175 16.3934C17.5579 17.0458 17.0554 17.5483 16.3997 17.8113C15.4179 18.2007 13.0881 18.1108 12.0031 18.1108C10.9181 18.1108 8.58498 18.1973 7.60647 17.8113C6.95414 17.5517 6.45157 17.0491 6.18864 16.3934C5.79924 15.4116 5.8891 13.0818 5.8891 11.9968C5.8891 10.9118 5.80256 8.57872 6.18864 7.60021C6.44824 6.94788 6.95081 6.44531 7.60647 6.18238C8.5883 5.79298 10.9181 5.88284 12.0031 5.88284C13.0881 5.88284 15.4212 5.79631 16.3997 6.18238C17.052 6.44199 17.5546 6.94455 17.8175 7.60021C18.2069 8.58205 18.1171 10.9118 18.1171 11.9968C18.1171 13.0818 18.2069 15.4149 17.8175 16.3934Z" fill="#6B6B6B"/>
</g>
<defs>
<clipPath id="clip0_601_5157">
<rect width="14.9105" height="17.0406" fill="white" transform="translate(4.54468 3.47949)"/>
</clipPath>
</defs>
</svg>
