<svg width="24" height="24" viewBox="0 0 24 24" fill="none" xmlns="http://www.w3.org/2000/svg">
<rect width="24" height="24" rx="12" fill="#2B2B2B"/>
<g clip-path="url(#clip0_601_5160)">
<path d="M17.8663 8.9914C17.8757 9.12259 17.8757 9.25381 17.8757 9.385C17.8757 13.3865 14.83 17.9973 9.26342 17.9973C7.54846 17.9973 5.95534 17.5005 4.61523 16.6384C4.8589 16.6665 5.09316 16.6759 5.3462 16.6759C6.76124 16.6759 8.06388 16.198 9.1041 15.3827C7.77337 15.3545 6.65818 14.483 6.27395 13.2835C6.46139 13.3116 6.6488 13.3303 6.84562 13.3303C7.11738 13.3303 7.38917 13.2928 7.64218 13.2273C6.25522 12.9461 5.21497 11.7278 5.21497 10.2565V10.2191C5.61793 10.444 6.08653 10.5845 6.58318 10.6033C5.76787 10.0597 5.23372 9.13196 5.23372 8.08237C5.23372 7.5201 5.38364 7.00467 5.64605 6.55485C7.1361 8.39163 9.37586 9.59114 11.8874 9.72236C11.8405 9.49744 11.8124 9.26318 11.8124 9.0289C11.8124 7.36078 13.1619 6.00195 14.8393 6.00195C15.7109 6.00195 16.498 6.36743 17.051 6.95783C17.735 6.82664 18.391 6.5736 18.9721 6.22687C18.7471 6.92973 18.2692 7.52013 17.6414 7.89495C18.2505 7.82939 18.8409 7.66066 19.3844 7.4264C18.9721 8.02615 18.4567 8.56029 17.8663 8.9914V8.9914Z" fill="#6B6B6B"/>
</g>
<defs>
<clipPath id="clip0_601_5160">
<rect width="14.7692" height="14.7692" fill="white" transform="translate(4.61523 4.61523)"/>
</clipPath>
</defs>
</svg>
