<svg width="24" height="24" viewBox="0 0 24 24" fill="none" xmlns="http://www.w3.org/2000/svg">
<rect width="24" height="24" rx="12" fill="#2B2B2B"/>
<g clip-path="url(#clip0_601_5154)">
<path d="M18.9186 8.43246C18.7525 7.79288 18.2632 7.28918 17.6418 7.11824C16.5157 6.80762 11.9998 6.80762 11.9998 6.80762C11.9998 6.80762 7.484 6.80762 6.3578 7.11824C5.73648 7.2892 5.24714 7.79288 5.08106 8.43246C4.7793 9.59172 4.7793 12.0104 4.7793 12.0104C4.7793 12.0104 4.7793 14.4291 5.08106 15.5884C5.24714 16.228 5.73648 16.7107 6.3578 16.8816C7.484 17.1922 11.9998 17.1922 11.9998 17.1922C11.9998 17.1922 16.5156 17.1922 17.6418 16.8816C18.2632 16.7107 18.7525 16.228 18.9186 15.5884C19.2203 14.4291 19.2203 12.0104 19.2203 12.0104C19.2203 12.0104 19.2203 9.59172 18.9186 8.43246V8.43246ZM10.5229 14.2064V9.81442L14.2972 12.0105L10.5229 14.2064V14.2064Z" fill="#6B6B6B"/>
</g>
<defs>
<clipPath id="clip0_601_5154">
<rect width="15.2308" height="13.8462" fill="white" transform="translate(4.38452 5.07715)"/>
</clipPath>
</defs>
</svg>
