<svg width="60" height="60" viewBox="0 0 60 60" fill="none" xmlns="http://www.w3.org/2000/svg">
<g clip-path="url(#clip0_22_1525)">
<path d="M45.9953 47.8644H13.3301V23.3652H45.9953V47.8632V47.8644ZM29.7125 31.7316C29.076 31.7316 28.4655 31.9845 28.0154 32.4346C27.5653 32.8847 27.3125 33.4951 27.3125 34.1316V37.8852C27.3125 38.5218 27.5653 39.1322 28.0154 39.5823C28.4655 40.0324 29.076 40.2852 29.7125 40.2852H29.7977C30.4342 40.2852 31.0446 40.0324 31.4947 39.5823C31.9448 39.1322 32.1977 38.5218 32.1977 37.8852V34.1328C32.1977 33.4963 31.9448 32.8859 31.4947 32.4358C31.0446 31.9857 30.4342 31.7328 29.7977 31.7328L29.7125 31.7316Z" fill="white"/>
<path d="M29.7548 10.9688C32.346 10.9688 34.8312 11.9981 36.6635 13.8304C38.4958 15.6627 39.5252 18.1479 39.5252 20.7391V26.8459C39.5252 32.2459 20.2304 27.7639 19.9844 26.8459V20.7391C19.9844 18.1479 21.0138 15.6627 22.8461 13.8304C24.6784 11.9981 27.1635 10.9688 29.7548 10.9688V10.9688Z" stroke="white" stroke-width="4"/>
</g>
<defs>
<clipPath id="clip0_22_1525">
<rect width="60" height="60" fill="white"/>
</clipPath>
</defs>
</svg>
