<svg width="60" height="60" viewBox="0 0 60 60" fill="none" xmlns="http://www.w3.org/2000/svg">
<g clip-path="url(#clip0_22_1529)">
<path d="M10.27 41.8854L9.23438 51.0162H18.3364L45.1804 24.1722L36.0784 15.0702L10.27 41.8854ZM49.3792 19.9722C49.977 19.3746 50.4513 18.6652 50.7748 17.8843C51.0984 17.1034 51.265 16.2664 51.265 15.4212C51.265 14.5759 51.0984 13.7389 50.7748 12.958C50.4513 12.1772 49.977 11.4677 49.3792 10.8702C48.7816 10.2723 48.0722 9.79806 47.2913 9.47449C46.5104 9.15092 45.6734 8.98437 44.8282 8.98438C43.9829 8.98437 43.1459 9.15092 42.3651 9.47449C41.5842 9.79806 40.8747 10.2723 40.2772 10.8702L38.6752 12.4722L47.7772 21.5742L49.3792 19.9722Z" fill="white"/>
</g>
<defs>
<clipPath id="clip0_22_1529">
<rect width="60" height="60" fill="white"/>
</clipPath>
</defs>
</svg>
