<svg width="14" height="14" viewBox="0 0 14 14" fill="none" xmlns="http://www.w3.org/2000/svg">
<g clip-path="url(#clip0_8_317)">
<g opacity="0.301">
<path d="M7 14C10.866 14 14 10.866 14 7C14 3.13401 10.866 0 7 0C3.13401 0 0 3.13401 0 7C0 10.866 3.13401 14 7 14Z" fill="white"/>
<path d="M9.55285 9.99985C9.49414 9.99994 9.43599 9.98841 9.38176 9.96592C9.32752 9.94344 9.27827 9.91045 9.23685 9.86885L4.13085 4.76285C4.04706 4.67902 4 4.56536 4 4.44685C4 4.32833 4.04706 4.21467 4.13085 4.13085C4.21467 4.04706 4.32833 4 4.44685 4C4.56536 4 4.67902 4.04706 4.76285 4.13085L9.86885 9.23685C9.93133 9.29936 9.97388 9.37899 9.99111 9.46568C10.0083 9.55237 9.9995 9.64223 9.96568 9.72389C9.93186 9.80555 9.87459 9.87535 9.80111 9.92446C9.72763 9.97358 9.64123 9.99982 9.55285 9.99985V9.99985Z" fill="black"/>
<path d="M4.44685 9.99985C4.38814 9.99994 4.32999 9.98841 4.27576 9.96592C4.22152 9.94344 4.17227 9.91045 4.13085 9.86885C4.04706 9.78502 4 9.67136 4 9.55285C4 9.43433 4.04706 9.32067 4.13085 9.23685L9.23685 4.13085C9.32067 4.04706 9.43433 4 9.55285 4C9.67136 4 9.78502 4.04706 9.86885 4.13085C9.95263 4.21467 9.99969 4.32833 9.99969 4.44685C9.99969 4.56536 9.95263 4.67902 9.86885 4.76285L4.76285 9.86885C4.72142 9.91045 4.67217 9.94344 4.61794 9.96592C4.5637 9.98841 4.50556 9.99994 4.44685 9.99985V9.99985Z" fill="black"/>
</g>
</g>
<defs>
<clipPath id="clip0_8_317">
<rect width="14" height="14" fill="white"/>
</clipPath>
</defs>
</svg>
