<svg width="15" height="15" viewBox="0 0 15 15" fill="none" xmlns="http://www.w3.org/2000/svg">
<g clip-path="url(#clip0_8_316)">
<g opacity="0.5">
<path d="M14.3172 14.9971C14.2276 14.9972 14.1388 14.9796 14.056 14.9453C13.9732 14.9109 13.898 14.8606 13.8348 14.7971L0.199537 1.16313C0.083091 1.03315 0.0208634 0.86351 0.0256474 0.68907C0.0304313 0.51463 0.101863 0.348651 0.225257 0.225257C0.348651 0.101863 0.51463 0.0304313 0.68907 0.0256474C0.86351 0.0208634 1.03315 0.083091 1.16313 0.199537L14.7996 13.836C14.8946 13.9315 14.9592 14.053 14.9852 14.1851C15.0113 14.3172 14.9977 14.4541 14.9461 14.5785C14.8945 14.7029 14.8073 14.8093 14.6954 14.8842C14.5834 14.9592 14.4519 14.9993 14.3172 14.9996V14.9971Z" fill="#959595"/>
<path d="M0.682186 14.9974C0.592563 14.9975 0.503803 14.9799 0.421011 14.9456C0.338219 14.9113 0.263029 14.8609 0.199766 14.7975C0.0718551 14.6695 0 14.496 0 14.315C0 14.1341 0.0718551 13.9606 0.199766 13.8326L13.8362 0.199891C13.9651 0.076225 14.1372 0.00798012 14.3158 0.00980115C14.4943 0.0116222 14.6651 0.083364 14.7913 0.209632C14.9176 0.3359 14.9894 0.506632 14.9912 0.685193C14.993 0.863754 14.9248 1.03591 14.8011 1.16473L1.16336 14.8C1.03548 14.927 0.862408 14.998 0.682186 14.9974V14.9974Z" fill="#959595"/>
</g>
</g>
<defs>
<clipPath id="clip0_8_316">
<rect width="15" height="15" fill="white"/>
</clipPath>
</defs>
</svg>
